<svg width="144" height="43" viewBox="0 0 144 43" fill="none" xmlns="http://www.w3.org/2000/svg">
<path d="M144 12.3531C144 20.362 139.429 27.057 132.67 29.2469C131.383 29.7475 129.966 29.9978 128.55 29.9978C124.366 29.9978 120.439 27.7453 118.508 24.1162C115.032 27.2447 114.066 30.8112 114.066 30.8737C113.873 31.562 113.229 32 112.586 32C112.457 32 112.328 32 112.199 32C111.362 31.8123 110.847 30.9989 111.041 30.1855C111.684 27.6827 116.899 15.9821 132.606 15.9821C133.185 15.9821 133.7 15.5441 133.7 14.981C133.7 14.4804 133.185 13.9799 132.67 13.9799C125.718 13.9799 120.761 16.1698 117.22 18.7352C117.22 18.0469 117.285 17.3587 117.414 16.6704C118.315 12.5408 121.662 9.22458 125.911 8.28603C127.713 7.84804 129.451 7.91061 131.125 8.28603C134.73 9.09944 138.721 7.78547 140.717 4.46927C141.103 3.84358 142.004 3.84358 142.326 4.46927C143.356 6.78436 144 9.6 144 12.3531Z" fill="#00B158"/>
<path d="M112.5 30.5C110.5 39 102 41 89.5 41C79.0693 41 32.6667 41.3333 2 41" stroke="url(#paint0_linear_79_13)" stroke-width="3" stroke-linecap="round"/>
<path d="M21.7402 18.52C23.3936 18.8933 24.7002 19.72 25.6602 21C26.6469 22.2533 27.1402 23.6933 27.1402 25.32C27.1402 27.72 26.3136 29.6 24.6602 30.96C23.0069 32.32 20.6869 33 17.7002 33H8.74024C5.97881 33 3.74023 30.7614 3.74023 28V9.79999C3.74023 7.03857 5.97881 4.79999 8.74023 4.79999H17.2602C20.1402 4.79999 22.3936 5.43999 24.0202 6.72C25.6736 7.99999 26.5002 9.79999 26.5002 12.12C26.5002 13.7733 26.0602 15.16 25.1802 16.28C24.3269 17.3733 23.1802 18.12 21.7402 18.52ZM11.5802 15C11.5802 15.5523 12.0279 16 12.5802 16H15.5402C17.5136 16 18.5002 15.1867 18.5002 13.56C18.5002 11.88 17.5136 11.04 15.5402 11.04H12.5802C12.028 11.04 11.5802 11.4877 11.5802 12.04V15ZM16.1402 26.68C18.1136 26.68 19.1002 25.8533 19.1002 24.2C19.1002 23.3467 18.8336 22.6933 18.3002 22.24C17.7936 21.7867 17.0602 21.56 16.1002 21.56H12.5802C12.0279 21.56 11.5802 22.0077 11.5802 22.56V25.68C11.5802 26.2323 12.028 26.68 12.5802 26.68H16.1402Z" fill="#0F2A60"/>
<path d="M52.0162 21.52C52.0162 21.8421 52.0051 22.1643 51.9831 22.4864C51.9487 22.9875 51.5204 23.36 51.0181 23.36H38.1235C37.5456 23.36 37.0752 23.8526 37.2044 24.4159C37.3681 25.1294 37.652 25.6975 38.0562 26.12C38.6695 26.7067 39.4428 27 40.3762 27C41.4618 27 42.2897 26.595 42.8599 25.7851C43.0817 25.47 43.4216 25.24 43.807 25.24H50.2872C50.9277 25.24 51.4053 25.8361 51.1892 26.439C50.8046 27.5123 50.2403 28.4993 49.4962 29.4C48.5095 30.6 47.2562 31.5467 45.7362 32.24C44.2162 32.9333 42.5362 33.28 40.6962 33.28C38.4828 33.28 36.5095 32.8133 34.7762 31.88C33.0695 30.9467 31.7228 29.6133 30.7362 27.88C29.7762 26.1467 29.2962 24.1067 29.2962 21.76C29.2962 19.4133 29.7762 17.3867 30.7362 15.68C31.6962 13.9467 33.0295 12.6133 34.7362 11.68C36.4695 10.7467 38.4562 10.28 40.6962 10.28C42.9095 10.28 44.8695 10.7333 46.5762 11.64C48.2828 12.5467 49.6162 13.8533 50.5762 15.56C51.5362 17.24 52.0162 19.2267 52.0162 21.52ZM43.0162 19.56C43.5685 19.56 44.0401 19.1017 43.8819 18.5726C43.7321 18.0714 43.4569 17.6539 43.0562 17.32C42.4162 16.76 41.6162 16.48 40.6562 16.48C39.6962 16.48 38.9095 16.7467 38.2962 17.28C37.9413 17.5732 37.6578 17.9512 37.4457 18.414C37.1855 18.9821 37.6724 19.56 38.2972 19.56H43.0162Z" fill="#0F2A60"/>
<path d="M73.3446 4.79999C73.8969 4.79999 74.3446 5.24771 74.3446 5.79999V10.04C74.3446 10.5923 73.8969 11.04 73.3446 11.04H64.0646C63.5123 11.04 63.0646 11.4877 63.0646 12.04V15C63.0646 15.5523 63.5123 16 64.0646 16H70.3846C70.9369 16 71.3846 16.4477 71.3846 17V20.96C71.3846 21.5123 70.9369 21.96 70.3846 21.96H63.8006C63.3941 21.96 63.0646 22.2895 63.0646 22.696V25.6827C63.0646 29.7239 59.7885 33 55.7473 33C55.4586 33 55.2246 32.766 55.2246 32.4773V5.79999C55.2246 5.24771 55.6723 4.79999 56.2246 4.79999H73.3446Z" fill="#0F2A60"/>
<path d="M81.6065 8.48C80.2198 8.48 79.0998 8.10666 78.2465 7.35999C77.4198 6.58666 77.0065 5.62666 77.0065 4.47999C77.0065 3.30666 77.4198 2.33333 78.2465 1.56C79.0998 0.786661 80.2198 0.399994 81.6065 0.399994C82.9665 0.399994 84.0598 0.786661 84.8865 1.56C85.7398 2.33333 86.1665 3.30666 86.1665 4.47999C86.1665 5.62666 85.7398 6.58666 84.8865 7.35999C84.0598 8.10666 82.9665 8.48 81.6065 8.48ZM84.4865 10.56C85.0388 10.56 85.4865 11.0077 85.4865 11.56V32C85.4865 32.5523 85.0388 33 84.4865 33H78.6465C78.0942 33 77.6465 32.5523 77.6465 32V11.56C77.6465 11.0077 78.0942 10.56 78.6465 10.56H84.4865Z" fill="#0F2A60"/>
<path d="M102.237 26.32C102.764 26.32 103.191 26.7472 103.191 27.2743V29.6C103.191 31.4778 101.669 33 99.7912 33C94.0578 33 91.1912 30.16 91.1912 24.48V18.08C91.1912 17.5277 90.7435 17.08 90.1912 17.08H89.4312C88.8789 17.08 88.4312 16.6323 88.4312 16.08V11.56C88.4312 11.0077 88.8789 10.56 89.4312 10.56H90.1912C90.7435 10.56 91.1912 10.1123 91.1912 9.55999V6.11999C91.1912 5.56771 91.6389 5.12 92.1912 5.12H98.0712C98.6235 5.12 99.0712 5.56771 99.0712 6.12V9.55999C99.0712 10.1123 99.5189 10.56 100.071 10.56H102.151C102.703 10.56 103.151 11.0077 103.151 11.56V16.08C103.151 16.6323 102.703 17.08 102.151 17.08H100.071C99.5189 17.08 99.0712 17.5277 99.0712 18.08V24.6C99.0712 25.2133 99.2045 25.6533 99.4712 25.92C99.7645 26.1867 100.245 26.32 100.911 26.32H102.237Z" fill="#0F2A60"/>
<defs>
<linearGradient id="paint0_linear_79_13" x1="98.5" y1="41.1482" x2="2.00001" y2="41.1482" gradientUnits="userSpaceOnUse">
<stop stop-color="#00B158"/>
<stop offset="1" stop-color="white"/>
</linearGradient>
</defs>
</svg>
